svg
<svg width="24" height="24" viewBox="0 0 24 24" fill="#1DA1F2">
  <path d="M23.643 4.937c-.835.37-1.732.62-2.675.733.962-.576 1.7-1.49 2.048-2.578-.9.534-1.897.922-2.958 1.13-.85-.909-2.063-1.477-3.41-1.477-2.573 0-4.66 2.087-4.66 4.66 0 .366.042.725.12 1.068-3.875-.195-7.322-2.054-9.608-4.877-.402.69-.63 1.49-.63 2.342 0 1.616.823 3.043 2.072 3.887-.764-.025-1.482-.234-2.11-.583v.06c0 2.257 1.605 4.14 3.735 4.57-.392.106-.803.162-1.227.162-.3 0-.593-.028-.877-.082.593 1.85 2.313 3.198 4.352 3.234-1.595 1.25-3.604 1.995-5.786 1.995-.376 0-.748-.022-1.114-.065 2.062 1.323 4.51 2.093 7.14 2.093 8.57 0 13.255-7.098 13.255-13.254 0-.2-.005-.402-.014-.602.91-.658 1.7-1.477 2.323-2.41z"/>
</svg>
